<?xml version="1.0" standalone="no"?>
<!DOCTYPE svg PUBLIC "-//W3C//DTD SVG 20010904//EN"
 "http://www.w3.org/TR/2001/REC-SVG-20010904/DTD/svg10.dtd">
<svg version="1.0" xmlns="http://www.w3.org/2000/svg"
 width="16.000000pt" height="16.000000pt" viewBox="0 0 16.000000 16.000000"
 preserveAspectRatio="xMidYMid meet">

<g transform="translate(0.000000,16.000000) scale(0.100000,-0.100000)"
fill="#000000" stroke="none">
<path d="M18 153 c-15 -4 -18 -16 -18 -79 l0 -75 78 3 77 3 3 78 3 77 -63 -1
c-35 -1 -71 -3 -80 -6z m86 -38 c-4 -10 0 -15 10 -15 22 0 11 -49 -16 -72 -26
-23 -34 -23 -63 6 -16 16 -22 31 -18 45 6 25 15 32 57 42 17 4 32 7 33 8 1 1
0 -6 -3 -14z"/>
<path d="M65 80 c3 -5 10 -10 16 -10 5 0 9 5 9 10 0 6 -7 10 -16 10 -8 0 -12
-4 -9 -10z"/>
</g>
</svg>
