<svg>
    <symbol xmlns="http://www.w3.org/2000/svg" width="100%" height="100%" viewBox="0 0 1920 1080" id="logo-icon">
        <path d="M620 524V266H451c-1.653 0-3 1.347-3 3 0 .131.002.247.008.347l64.966 87.174.557.741c8.679 11.527 16.47 24.211 16.47 52.406 0 32.328-12.095 61.805-34.057 82.998C475.004 512.872 447.086 524 417.333 524H56V382h298.333c1.504 0 1.667-2.098 1.667-3l-.002-.221c-8.182-9.697-53.674-63.626-62.897-74.695l-.361-.433-.34-.451c-8.643-11.522-16.4-24.263-16.4-53.2 0-32.314 11.877-61.989 33.444-83.556C330.365 145.522 358.264 134 388 134h538v132H762v258H620zM1173.941 524l-16-50h-133.883l-16 50H867.756l126.242-390h191.918l128.496 390h-140.471zm-56.577-168L1091 277.816 1064.636 356h52.728zM1630 524c-16.584 0-31.612-5.923-44.668-17.604-22.181-19.845-60.608-55.969-89.332-83.151V524h-148V134h254c71.684 0 130 58.318 130 130 0 46.881-25.487 89.303-64.848 112.149 3.436 3.663 6.355 5.851 12.848 5.851h184v142h-234zm-57-234c10.478 0 19-8.522 19-19 0-10.477-8.522-19-19-19h-77v38h77zM399.25 936L343.5 772.259 287.75 936h-97.708L62.671 546h143.388l32.776 102.426L274.343 546h138.315l35.508 102.426L480.941 546H624.33L496.959 936zM869.941 936l-16-50H720.059l-16 50H563.756l126.242-390h191.918l128.498 390H869.941zm-56.577-168L787 689.815 760.636 768h52.728zM1330 936c-16.582 0-31.61-5.923-44.668-17.604-22.181-19.846-60.608-55.97-89.332-83.152V936h-148V546h254c71.684 0 130 58.317 130 130 0 46.88-25.487 89.303-64.848 112.149 3.436 3.663 6.355 5.851 12.848 5.851h212.334c1.504 0 1.666-2.098 1.666-3 0-.079 0-.152-.002-.221-8.178-9.691-53.674-63.626-62.897-74.695l-.361-.433-.338-.451c-8.643-11.522-16.399-24.264-16.399-53.2 0-32.314 11.877-61.989 33.442-83.557C1568.365 557.522 1596.264 546 1626 546h238v132h-175c-1.653 0-3 1.347-3 3 0 .132.004.246.008.347l64.967 87.174.557.741c8.68 11.526 16.471 24.21 16.471 52.404 0 32.329-12.096 61.806-34.058 82.998-20.94 20.207-48.856 31.336-78.61 31.336H1330zm-57-234c10.478 0 19-8.522 19-19 0-10.477-8.522-19-19-19h-77v38h77z" fill="currentColor"/>
    </symbol>
    <symbol xmlns="http://www.w3.org/2000/svg"  viewBox="0 0 48 48" width="100%" height="100%" id="lightsaber-icon">
        <path fill="var(--color-1)" d="M15,35c-0.5,0-1-0.2-1.4-0.6c-0.8-0.8-0.8-2,0-2.8l26-26c0.8-0.8,2-0.8,2.8,0c0.8,0.8,0.8,2,0,2.8 l-26,26C16,34.8,15.5,35,15,35z"/>
        <path fill="var(--color-2)" d="M14,35c-0.3,0-0.5-0.1-0.7-0.3c-0.4-0.4-0.4-1,0-1.4l27-27c0.4-0.4,1-0.4,1.4,0s0.4,1,0,1.4l-27,27 C14.5,34.9,14.3,35,14,35z"/>
        <path fill="#90a4ae" d="M8.3,38.3l1.4,1.4L6.4,43L5,41.6L8.3,38.3z"/>
        <path fill="#90a4ae" d="M14.5,30.7l2.8,2.8L7.8,43L5,40.2L14.5,30.7z"/>
        <path fill="#37474f" d="M12.1 33.1l2.8 2.8L7.8 43 5 40.2 12.1 33.1zM18 27.2l-3.9 3.9 2.8 2.8 1.1-1.1V27.2z"/>
        <path fill="#37474f" d="M11,32l3,3l-2,2l-3-3L11,32z"/>
    </symbol>
</svg>
