<?xml version="1.0" encoding="utf-8"?><svg viewBox="0 0 512 512" xmlns="http://www.w3.org/2000/svg" xmlns:xlink="http://www.w3.org/1999/xlink"><style>:root>svg{display:none}:root>svg:target{display:block}</style><svg viewBox="0 0 100 100" id="amazon-icon" xmlns="http://www.w3.org/2000/svg"><path fill="#fbb97f" d="M10.707 73.5c-.092 0-.16.038-.188.077-.054.074.014.227.167.38C21.331 83.537 34.285 88.5 48 88.5c10.46 0 22.055-3.717 30.079-9.64l.006-.005c.196-.14.405-.349.405-.812 0-.305-.341-.54-.686-.54-.459 0-1.372.41-1.819.589C67.549 81.469 57.49 83.5 48 83.5c-13.048 0-25.714-3.409-37.117-9.956a.406.406 0 00-.176-.044zm67.793 0c2.5 0 3.594.368 4.145 1.135.125.176.355.497.355 1.365 0 1.263-.49 3.685-2.5 8.5.051-.022 5-4 5-11 0-.5-.074-.823-.192-1-.069-.102-1.308-1-5.308-1-5 0-7.464 1.937-7.5 2h6z"/><path fill="#1f212b" d="M48 89c-13.965 0-26.983-5.073-37.648-14.671-.431-.43-.402-.818-.238-1.045.2-.276.631-.367.99-.188C22.401 79.58 35.149 83 48 83c9.139 0 19.271-1.959 27.8-5.373l.224-.092c.681-.281 1.329-.533 1.781-.533.643 0 1.186.477 1.186 1.04 0 .782-.463 1.111-.615 1.22C70.238 85.269 58.599 89 48 89zM13.018 75.29C23.132 83.63 35.16 88 48 88c10.396 0 21.808-3.656 29.782-9.543.127-.091.208-.168.208-.415-.006.016-.082-.04-.186-.04-.291 0-1.04.309-1.399.457l-.234.096C67.401 82.066 57.396 84 48 84c-12.126 0-24.163-3.004-34.982-8.71zM80.5 85a.498.498 0 01-.461-.693C82.073 79.433 82.5 77.1 82.5 76c0-.709-.164-.938-.262-1.074-.329-.457-1.03-.926-3.738-.926h-6a.5.5 0 01-.433-.75C72.199 73.021 74.812 71 80 71c4.021 0 5.494.881 5.723 1.221.186.28.277.698.277 1.279 0 7.429-5.245 11.434-5.298 11.457A.492.492 0 0180.5 85zm-6.074-12H78.5c2.58 0 3.856.377 4.551 1.343.145.204.449.627.449 1.657 0 1.363-.529 3.466-1.576 6.268C83.299 80.503 85 77.509 85 73.5c0-.526-.091-.694-.106-.72-.005.043-1.083-.78-4.894-.78-2.552 0-4.397.514-5.574 1z"/><path fill="#4e6e91" d="M63.953 69.877c.183.077.372.118.547.123.246.008.462-.054.592-.184 3.684-3.317 5.99-5.671 7.602-6.99.573-.459.235-1.124-.147-1.602l-.423-.546C70.257 58.278 69 55.797 69 50.8V34.2c0-6.854-.2-12.774-4.893-17.278C60.288 13.294 53.799 12 49 12c-8.633 0-19.795 2.709-21.986 15.99 0 .003-.014.047-.014.218 0 .257.108.62.785.807L37.988 30c.395 0 .52-.421.631-.995C39.484 24.563 42.961 22 47.8 22c2.56 0 7.2 1.463 7.2 7v7h-.8c-6.389 0-13.195 0-18.606 2.319C28.761 41.218 25 46.999 25 54.6 25 64.243 30.858 70 40 70c11.7 0 17.57-8 17.57-8l1.302 1.852c1.377 2.177 2.293 3.548 5.081 6.025zM44 60c-5.537 0-7-4.579-7-7 0-11 11.913-11 17-11h1v3.2C55 55.021 51.299 60 44 60z"/><path fill="#1f212b" d="M64.542 71.001l-.074-.002c-.3-.01-.61-.078-.899-.199a1.01 1.01 0 01-.279-.175c-2.866-2.546-3.821-3.96-5.263-6.239l-.53-.754C55.403 65.89 49.606 71 40 71c-9.869 0-16-6.284-16-16.4 0-8.027 3.979-14.137 11.203-17.201C40.743 35.024 47.475 35 54 35v-6c0-5.932-5.947-6-6.2-6-4.443 0-7.433 2.259-8.199 6.196-.096.492-.35 1.804-1.614 1.804l-10.298-.99a.978.978 0 01-.17-.031C26.148 29.602 26 28.614 26 28.208c0-.163.009-.285.029-.393C27.823 16.972 35.98 11 49 11c4.991 0 11.763 1.365 15.796 5.197C69.627 20.834 70 26.583 70 34.2v16.6c0 4.616 1.068 6.893 2.912 9.265l.425.548c.322.402.534.814.619 1.211a1.749 1.749 0 01-.638 1.783c-.819.671-1.865 1.658-3.19 2.908-1.171 1.104-2.628 2.479-4.367 4.045-.273.274-.715.441-1.219.441zM54.2 37c-6.387 0-12.99 0-18.213 2.238C29.546 41.971 26 47.426 26 54.6 26 63.616 31.233 69 40 69c11.065 0 16.708-7.516 16.764-7.592A.999.999 0 0157.57 61h.01c.322.003.623.161.809.425l1.302 1.852c1.383 2.186 2.224 3.433 4.773 5.716l.043.007a253.32 253.32 0 004.248-3.939c1.303-1.228 2.341-2.208 3.203-2.923a1.74 1.74 0 00-.192-.287l-.434-.559C69.275 58.646 68 55.967 68 50.8V34.2c0-7.118-.329-12.472-4.585-16.557C59.812 14.221 53.605 13 49 13c-8.412 0-18.865 2.613-20.979 15.033l9.588.926.029-.145C38.591 23.921 42.39 21 47.8 21c2.836 0 8.2 1.672 8.2 8v7a1 1 0 01-1 1h-.8zM44 61c-6.328 0-8-5.233-8-8 0-12 13.077-12 18-12h1a1 1 0 011 1v3.2C56 58.259 49.475 61 44 61zm10-18c-7.912 0-16 1.188-16 10 0 .245.068 6 6 6 6.729 0 10-4.514 10-13.8V43z"/><path fill="#1f212b" d="M65.728 59a.5.5 0 01-.469-.325 18.916 18.916 0 01-.837-3.082.5.5 0 11.982-.186 17.87 17.87 0 00.792 2.918.5.5 0 01-.468.675zm-1.207-7a.5.5 0 01-.5-.487l-.009-.26c-.006-.148-.012-.295-.012-.453V34.2c0-.945-.007-1.838-.024-2.689a.501.501 0 01.489-.511h.011a.5.5 0 01.5.489c.017.86.024 1.758.024 2.711v16.6c0 .144.006.277.012.411l.01.276a.501.501 0 01-.487.513h-.014zm2.688 10a.5.5 0 01-.425-.236 18.003 18.003 0 01-.592-1.029.5.5 0 11.883-.469c.18.338.366.661.559.971a.5.5 0 01-.425.763z"/></svg><svg viewBox="0 0 380 380" id="amex-payment" xmlns="http://www.w3.org/2000/svg"><path d="M70.1 197.327h15.336l-7.716-19.553z"/><path d="M362.621 75.298H17.379C7.782 75.298 0 83.078 0 92.677v194.646c0 9.599 7.782 17.379 17.379 17.379h345.242c9.596 0 17.379-7.78 17.379-17.379V92.677c0-9.599-7.783-17.379-17.379-17.379zM112.851 225.47a3.492 3.492 0 01-2.893 1.53H99.524a3.484 3.484 0 01-3.256-2.215l-3.771-9.557H63.124l-3.721 9.544a3.477 3.477 0 01-3.261 2.229H45.731a3.501 3.501 0 01-3.261-4.772l26.761-68.666a3.476 3.476 0 013.261-2.229h10.372c1.446 0 2.724.87 3.256 2.215l27.094 68.667a3.495 3.495 0 01-.363 3.254zm73.458-2.53c0 1.93-1.57 3.5-3.5 3.5h-9c-1.93 0-3.5-1.57-3.5-3.5v-30.084l-15.334 30.305a3.484 3.484 0 01-3.118 1.92 3.488 3.488 0 01-3.123-1.91l-15.487-30.393v30.163c0 1.93-1.57 3.5-3.5 3.5h-9c-1.93 0-3.5-1.57-3.5-3.5v-67.906c0-1.93 1.57-3.5 3.5-3.5H128c1.321 0 2.516.731 3.117 1.909l20.693 40.535 20.506-40.524a3.483 3.483 0 013.123-1.92h7.37c1.93 0 3.5 1.57 3.5 3.5v67.905zm77.669.742c0 1.93-1.57 3.5-3.5 3.5h-43c-1.93 0-3.5-1.57-3.5-3.5V155.71c0-1.93 1.57-3.5 3.5-3.5h41.806c1.93 0 3.5 1.57 3.5 3.5v8.284c0 1.93-1.57 3.5-3.5 3.5h-30.021v14.56h24.453c1.93 0 3.5 1.57 3.5 3.5v8.284c0 1.93-1.57 3.5-3.5 3.5h-24.453v14.56h31.216c1.93 0 3.5 1.57 3.5 3.5v8.284zm65.799-2.614l-7.29 5.277a3.486 3.486 0 01-2.61.62 3.52 3.52 0 01-2.28-1.404l-17.388-24.022-17.312 24.011a3.52 3.52 0 01-2.278 1.408 3.516 3.516 0 01-2.608-.617l-7.298-5.262a3.473 3.473 0 01-1.408-2.279 3.478 3.478 0 01.616-2.607l20.413-28.315-18.714-26.059a3.505 3.505 0 01.802-4.884l7.309-5.249c.6-.43 1.305-.658 2.04-.658 1.125 0 2.188.545 2.845 1.459l15.595 21.715 15.667-21.728a3.475 3.475 0 012.278-1.407 3.465 3.465 0 012.608.617l7.298 5.262a3.473 3.473 0 011.408 2.279 3.478 3.478 0 01-.616 2.607l-18.78 26.046 20.484 28.301a3.504 3.504 0 01-.781 4.889z"/></svg><svg viewBox="0 0 48 48" id="apple-icon" xmlns="http://www.w3.org/2000/svg"><path fill="#ef4754" d="M4.31 9.987c0 5 .548 4.069.553 8.568.004 3.752-.122 5.744-.275 8.434-.127 2.228-.438 4.42-.291 6.647.2 3.044-.313 5.686 1.359 7.611 1.856 2.136 4.958 2.745 7.13 2.852 2.172.108 6.577.189 8.739-.047 5.605-.611 9.159-.358 14.793-.13 2.056.083 5.059.569 6.898-1.152 1.446-1.354 1.654-3.01 1.612-6.381-.057-4.447-.134-7.87-.111-12.317.009-1.699.098-3.553.106-5.253.007-1.371-.23-4.268-.252-5.638-.02-1.275.069-3.327-.075-4.629-.596-5.397-8.673-5.104-13.028-4.904-5.02.23-3.659.339-8.659.339-1.388 0-3.712-.323-6.362-.335-3.513-.016-5.052-.001-7.138.335-3.002.484-5.192 2.091-4.999 6"/><path fill="#fff" d="M35.809 19.714c.171-3.307.306-6.309-.076-9.597-.057-.493-.162-1.018-.52-1.361-.493-.473-1.271-.432-1.95-.352-4.491.528-8.057.762-12.419 1.952-1.049.286-2.218.695-2.658 1.69-.308.699-.536 2.858-.552 3.622-.068 3.328-.224 5.125-.267 7.63l-.002.095c-.01.619-.012 1.285-.005 2.026l.003.241c.005.367.01.746.02 1.154v.025c.019.885-.089 1.759-.423 2.497-.262.577-.658 1.073-1.262 1.412-1.408.793-3.355.4-4.562 1.475-.697.621-1.406 2.185-1.406 3.505v.001c0 1.758 1.658 3.255 2.611 3.495.109.027.336.074.642.114.765.101 2.02.16 3.15-.223a4.21 4.21 0 00.658-.286c1.586-.865 2.173-2.328 2.453-3.197.04-.124.074-.236.104-.332.386-1.256-.02-10.433.151-12.394.142-1.542-.036-3.849.999-5 .643-.714 3.068-1.767 4-2 4-1 5.071-.546 8.057-.228.189.021.396.052.522.195.113.128.131.31.143.48l.302 4.118c.076 1.033-.054 2.676-.046 4.166.004.647-.056 1.262-.312 1.772a2.021 2.021 0 01-.701.789c-1.42.946-3.353.84-5.265 2.022-.651.402-1.44 1.746-1.549 2.504-.085.591-.109 1.138-.045 1.648s.215.985.48 1.434c.177.299.404.586.689.864.57.557 1.641.785 2.75.789 1.109.005 2.255-.214 2.976-.552 1.878-.879 2.514-2.602 2.959-4.91.207-1.071.335-2.157.384-3.246.104-2.321-.153-5.716-.033-8.037z"/><path fill="#010101" d="M17.368 44.705c-1.673 0-3.391-.046-4.608-.107-1.895-.094-5.387-.611-7.482-3.023-1.384-1.593-1.402-3.625-1.421-5.776-.006-.683-.012-1.395-.06-2.129-.107-1.623.024-3.24.151-4.804.052-.635.103-1.268.14-1.906l.021-.372c.144-2.497.257-4.47.253-8.033-.002-2.15-.128-3.021-.261-3.944-.143-.991-.291-2.014-.291-4.612-.179-3.709 1.645-5.897 5.42-6.505 2.166-.351 3.774-.355 7.221-.343 1.534.008 2.985.119 4.151.21.876.067 1.634.126 2.208.126 3.136 0 3.769-.044 5.031-.132.758-.054 1.745-.122 3.605-.207 4.186-.195 12.892-.591 13.546 5.348.102.926.09 2.194.081 3.314-.004.498-.009.968-.002 1.362.009.61.062 1.526.117 2.475.068 1.182.138 2.403.134 3.174-.004.851-.029 1.74-.053 2.63-.024.887-.049 1.774-.053 2.623-.018 3.404.023 6.153.069 9.336l.042 2.972c.044 3.482-.201 5.283-1.77 6.753-1.743 1.633-4.31 1.467-6.373 1.337a36.03 36.03 0 00-.887-.05l-1.732-.073c-4.652-.198-8.015-.341-12.986.2-1.039.113-2.604.156-4.211.156zM14.952 4.147c-2.41 0-3.809.05-5.563.333-3.238.521-4.736 2.314-4.58 5.482v.024c0 2.534.143 3.523.281 4.48.132.917.27 1.864.271 4.087.003 3.592-.111 5.577-.255 8.091l-.021.371a81.373 81.373 0 01-.141 1.929c-.13 1.599-.252 3.107-.15 4.657.049.755.056 1.485.062 2.187.018 2.047.033 3.814 1.176 5.129 1.853 2.133 5.041 2.596 6.777 2.682 2.352.116 6.595.18 8.66-.045 5.047-.55 8.44-.404 13.137-.205l1.73.072c.287.012.592.031.91.052 1.871.12 4.198.268 5.625-1.069 1.302-1.219 1.495-2.77 1.454-6.009l-.042-2.971c-.047-3.188-.087-5.941-.07-9.356.004-.855.029-1.75.053-2.645.024-.882.048-1.764.053-2.608.004-.738-.065-1.944-.133-3.111-.055-.963-.109-1.895-.119-2.516-.006-.401-.002-.88.002-1.387.01-1.092.021-2.33-.075-3.196-.548-5.005-8.625-4.634-12.503-4.459-1.848.085-2.828.154-3.581.207-1.285.09-1.93.135-5.101.135-.613 0-1.388-.06-2.285-.129-1.209-.094-2.581-.2-4.079-.207a272.17 272.17 0 00-1.493-.005z"/><path fill="#010101" d="M14.138 39.914a8.76 8.76 0 01-1.919-.207C11 39.4 9.23 37.697 9.23 35.728c0-1.365.706-3.104 1.574-3.878.779-.693 1.77-.853 2.728-1.007.706-.114 1.373-.222 1.922-.53 1.004-.566 1.473-1.704 1.43-3.479-.072-3.06.009-4.851.102-6.923.055-1.214.114-2.526.149-4.253.016-.752.243-3.019.595-3.813.51-1.155 1.735-1.63 2.983-1.972 3.612-.984 6.638-1.316 10.141-1.701.76-.083 1.541-.169 2.351-.265.852-.098 1.73-.112 2.354.488.474.454.604 1.097.67 1.664.373 3.204.268 6.032.08 9.679-.061 1.168-.023 2.647.013 4.079.035 1.378.071 2.804.02 3.955a22.967 22.967 0 01-.393 3.318c-.477 2.476-1.21 4.319-3.238 5.269-1.618.757-4.971.951-6.288-.333-1.151-1.122-1.542-2.472-1.269-4.375.126-.869.972-2.357 1.781-2.858 1.059-.654 2.125-.938 3.065-1.187.845-.225 1.574-.418 2.186-.825.568-.378.797-.999.791-2.142-.003-.628.017-1.283.037-1.908.027-.848.052-1.648.01-2.225l-.302-4.118a.866.866 0 00-.029-.198c.006.017-.046-.001-.19-.016-.52-.056-.982-.114-1.413-.17-2.03-.26-3.254-.417-6.47.387-.965.241-3.225 1.267-3.75 1.85-.69.766-.753 2.265-.809 3.587-.017.397-.033.778-.064 1.122-.068.783-.041 2.823-.011 4.983.055 4.047.073 6.756-.16 7.514-.265.863-.847 2.758-2.796 3.82-.928.507-1.998.647-2.892.647zm19.83-31.059c-.207 0-.426.02-.646.045-.813.096-1.596.182-2.359.266-3.461.38-6.451.708-9.987 1.672-1.009.276-1.99.639-2.332 1.411-.262.591-.494 2.633-.51 3.429a163.274 163.274 0 01-.15 4.278c-.092 2.055-.172 3.829-.101 6.854.051 2.148-.602 3.62-1.94 4.373-.705.396-1.492.523-2.254.646-.854.137-1.66.267-2.221.767-.586.521-1.239 1.936-1.239 3.131 0 1.494 1.466 2.817 2.233 3.011.613.154 2.677.422 4.09-.349 1.591-.867 2.071-2.431 2.302-3.182.221-.719.17-4.5.132-7.261-.031-2.281-.058-4.252.015-5.084v-.002c.03-.329.045-.694.062-1.074.063-1.491.134-3.181 1.065-4.215.772-.857 3.363-1.928 4.25-2.15 3.401-.849 4.771-.672 6.84-.408.424.055.879.113 1.392.168.204.021.58.062.843.361.23.26.253.582.267.774l.302 4.118c.046.628.02 1.454-.008 2.328a50.68 50.68 0 00-.037 1.871c.006 1-.13 2.243-1.236 2.979-.749.499-1.592.723-2.483.96-.916.242-1.863.494-2.796 1.071-.496.306-1.222 1.491-1.317 2.149-.23 1.597.053 2.616.977 3.517.945.922 3.888.742 5.166.143 1.65-.772 2.249-2.314 2.68-4.552.202-1.044.328-2.111.375-3.174.05-1.116.014-2.524-.02-3.885-.037-1.45-.075-2.949-.013-4.155.186-3.598.29-6.386-.074-9.513-.045-.392-.125-.823-.37-1.059-.206-.197-.531-.259-.898-.259z"/></svg><svg viewBox="0 0 47.949 47.949" id="discover-payment" xmlns="http://www.w3.org/2000/svg"><path d="M35.712 14.123v-1.127h-3.674v6.645h3.674v-1.125h-2.379v-1.794h2.293v-1.125h-2.293v-1.474zm3.622 2.721c.975-.199 1.514-.866 1.514-1.884 0-1.244-.858-1.962-2.352-1.962h-1.922v6.645h1.295v-2.67h.168l1.793 2.67h1.596l-2.092-2.799zm-1.088-.788h-.377l.001-2.011h.398c.808 0 1.246.338 1.246.984 0 .669-.44 1.027-1.268 1.027zm3.178-3.191a.508.508 0 100 1.018.508.508 0 000-1.018zm-.005.927c-.219 0-.403-.186-.403-.417s.182-.418.403-.418.404.189.404.418-.18.417-.404.417z"/><path d="M41.489 13.427a.16.16 0 00.127-.163c0-.118-.08-.181-.222-.181h-.188v.584h.139v-.227l.164.227h.17l-.19-.24zm-.121-.085h-.022v-.152h.024c.069 0 .104.025.104.075 0 .053-.037.077-.106.077zM6.07 12.996h1.295v6.645H6.07zm4.46 2.549c-.779-.287-1.008-.478-1.008-.836 0-.419.408-.737.967-.737.387 0 .707.16 1.045.539l.678-.889a2.914 2.914 0 00-1.953-.736c-1.176 0-2.07.816-2.07 1.903 0 .915.416 1.384 1.633 1.822.508.179.766.298.896.378.26.169.389.409.389.688 0 .538-.428.938-1.006.938-.617 0-1.117-.31-1.414-.887l-.838.807c.598.877 1.314 1.266 2.299 1.266 1.348 0 2.293-.896 2.293-2.182-.001-1.056-.439-1.535-1.911-2.074zm2.15 19.596h35.269V22.417S35.494 31.206 12.68 35.141zM1.9 12.998H0v6.645h1.893c1.004 0 1.73-.24 2.369-.769a3.327 3.327 0 001.205-2.549c0-1.962-1.465-3.329-3.567-3.327zm1.514 4.99c-.406.367-.935.528-1.771.528h-.348v-4.394h.348c.835 0 1.343.15 1.771.537.449.399.719 1.017.719 1.654 0 .64-.269 1.276-.719 1.675zm26.635-4.99l-1.796 4.463-1.771-4.463h-1.416l2.82 6.813h.695l2.871-6.813zm-8.113-.191a3.534 3.534 0 100 7.069 3.532 3.532 0 003.375-2.484c.021-.061.033-.123.051-.184.012-.052.027-.103.037-.154a3.534 3.534 0 00-3.463-4.247zm-5.581 1.224c.619 0 1.088.221 1.625.748v-1.524c-.568-.289-1.037-.408-1.594-.408-1.963 0-3.537 1.545-3.537 3.477-.001 1.952 1.532 3.465 3.505 3.465.559 0 1.037-.108 1.625-.387v-1.526c-.518.519-.977.729-1.564.729-1.305 0-2.23-.947-2.23-2.292 0-1.274.955-2.282 2.17-2.282z"/></svg><svg version="1.1" id="iheartradio-icon" x="0" y="0" viewBox="0 0 512 512" xml:space="preserve" xmlns="http://www.w3.org/2000/svg"><style>.est1{stroke:#000;stroke-width:6;stroke-miterlimit:10}.est1,.est2{fill:#cf4439}</style><path d="M79.3 8.9h358.4c42.4 0 76.8 34.4 76.8 76.8v358.4c0 42.4-34.4 76.8-76.8 76.8H79.3c-42.4 0-76.8-34.4-76.8-76.8V85.7c0-42.5 34.4-76.8 76.8-76.8z" fill="#fff"/><path id="eh" class="est1" d="M147.4 301.3c-32.3-28.6-48.6-58.4-48.6-86.7s15.9-57.9 36.9-71.1c10.3-4.4 14.6 8.2 8 12.6-16.7 10.5-29.9 35.1-29.9 58.7s14.7 49.6 43.6 75.2c7 8.7-3.8 16.5-9.9 11.2l-.1.1zm48.5-25.5c-21.9-12.3-36.6-36.3-36.6-59.4s12.5-43.7 32.3-54c10.5-3.7 14 9.3 7 13.2-15 7.8-24.3 23.3-24.3 40.2.1 18.4 11.7 37.2 29 46.9 8.7 7.1-.6 16.7-7.4 13.2v-.1zm60.1-21.9c-17.9 0-32.5-14.5-32.5-32.4S238.1 189 256 189v-30.7c-19.4-28.9-52.8-48.8-90.3-48.8-59.6 0-107.9 48.3-107.9 107.9 0 37.8 24 65.1 49 90.3l97.9 92.6c6.3 3.9 13.5 1.3 13.6-5.8v-72.1c0-20.9 16.9-37.8 37.8-37.8l-.1-30.7z" fill="#CF4439" stroke="#000" stroke-width="8"/><path id="eh_1_" class="est1" d="M364.6 301.4c-6.1 5.3-16.9-2.5-9.9-11.2 28.9-25.6 43.6-51.6 43.6-75.2s-13.2-48.2-29.9-58.7c-6.6-4.4-2.3-17 8-12.6 21 13.2 36.9 42.8 36.9 71.1s-16.3 58.1-48.6 86.7l-.1-.1zm-48.4-25.3c-6.8 3.5-16.1-6.1-7.4-13.2 17.3-9.7 28.9-28.5 29-46.9 0-16.9-9.3-32.4-24.3-40.2-7-3.9-3.5-16.9 7-13.2 19.8 10.3 32.3 30.9 32.3 54s-14.7 47.1-36.6 59.4v.1zm-60.2 8.7c20.9 0 37.8 16.9 37.8 37.8v72.1c.1 7.1 7.3 9.7 13.6 5.8l97.9-92.6c25-25.2 49-52.5 49-90.3 0-59.6-48.3-107.9-107.9-107.9-37.5 0-70.9 19.9-90.3 48.8v30.7c17.9 0 32.5 14.6 32.5 32.5s-14.6 32.4-32.5 32.4l-.1 30.7z" fill="#CF4439" stroke="#000" stroke-width="8"/><path class="est2" fill="#CF4439" d="M244.8 158.3h21.8v27.9h-21.8zm0 98.6h20.1v24.9h-20.1z"/><path d="M256.1 164.9l3.9-6.8h-7.8z"/></svg><svg viewBox="0 0 24 24" id="instagram-icon" xmlns="http://www.w3.org/2000/svg"><linearGradient id="fa" gradientTransform="matrix(0 -1.982 -1.844 0 -132.522 -51.077)" gradientUnits="userSpaceOnUse" x1="-37.106" x2="-26.555" y1="-72.705" y2="-84.047"><stop offset="0" stop-color="#fd5"/><stop offset=".5" stop-color="#ff543e"/><stop offset="1" stop-color="#c837ab"/></linearGradient><path d="M1.5 1.633C-.386 3.592 0 5.673 0 11.995c0 5.25-.916 10.513 3.878 11.752 1.497.385 14.761.385 16.256-.002 1.996-.515 3.62-2.134 3.842-4.957.031-.394.031-13.185-.001-13.587-.236-3.007-2.087-4.74-4.526-5.091C18.89.029 18.778.005 15.91 0 5.737.005 3.507-.448 1.5 1.633z" fill="url(#fa)"/><path d="M11.998 3.139c-3.631 0-7.079-.323-8.396 3.057-.544 1.396-.465 3.209-.465 5.805 0 2.278-.073 4.419.465 5.804 1.314 3.382 4.79 3.058 8.394 3.058 3.477 0 7.062.362 8.395-3.058.545-1.41.465-3.196.465-5.804 0-3.462.191-5.697-1.488-7.375-1.7-1.7-3.999-1.487-7.374-1.487zm-.794 1.597c7.574-.012 8.538-.854 8.006 10.843-.189 4.137-3.339 3.683-7.211 3.683-7.06 0-7.263-.202-7.263-7.265 0-7.145.56-7.257 6.468-7.263zm5.524 1.471a1.063 1.063 0 100 2.126 1.063 1.063 0 000-2.126zm-4.73 1.243a4.55 4.55 0 10.001 9.101 4.55 4.55 0 00-.001-9.101zm0 1.597c3.905 0 3.91 5.908 0 5.908-3.904 0-3.91-5.908 0-5.908z" fill="#fff"/></svg><svg id="kofi-logo" data-name="Layer 1" viewBox="0 0 101 40" xmlns="http://www.w3.org/2000/svg"><defs><linearGradient id="glinear-gradient" x1="9.55" y1="-1715.77" x2="13.7" y2="-1728.51" gradientTransform="matrix(1 0 0 -1 4.26 -1707.68)" gradientUnits="userSpaceOnUse"><stop offset="0" stop-color="#ff4ea3"/><stop offset="1" stop-color="#ff5e5b"/></linearGradient><style>.gcls-5{fill:#26272a}</style></defs><circle cx="20.4" cy="20" r="19.7" fill="#00b9fe"/><g id="gLayer_1-2" data-name="Layer 1-2"><g id="gLayer_1-3" data-name="Layer 1-3"><path d="M30.4 21.9a15.48 15.48 0 01-2.2.1v-7.2h1.5a3 3 0 012.5 1.2 3.57 3.57 0 01.8 2.3 3.35 3.35 0 01-2.6 3.6zm6.2-5a6.55 6.55 0 00-2.9-4.5 7.67 7.67 0 00-4.4-1.4h-22a1.28 1.28 0 00-1.1 1.2v.3s-.1 9.7.1 15a3.29 3.29 0 003.3 3.1s10.1 0 14.9-.1h.7c2.8-.7 3-3.3 3-4.7 5.5.2 9.4-3.7 8.4-8.9z" fill="#fff" stroke="#000" stroke-linecap="round" stroke-linejoin="round" stroke-width="1.14"/><path d="M17 26.4c.3.1.4 0 .4 0s3.5-3.2 5.1-5.1c1.4-1.7 1.5-4.4-.9-5.5S17.2 17 17.2 17a3.94 3.94 0 00-5.5-.6l-.1.1c-1.2 1.3-.8 3.5.1 4.7a60.17 60.17 0 005.1 5z" fill="#ff5e5b"/><path d="M17.2 26.5a.37.37 0 00.3-.1s3.5-3.2 5.1-5.1c1.4-1.7 1.5-4.4-.9-5.5S17.3 17 17.3 17a3.94 3.94 0 00-5.5-.6l-.1.1c-1.2 1.3-.8 3.5.1 4.7a62.58 62.58 0 005.2 5.1c0 .2.1.2.2.2z" fill="url(#glinear-gradient)"/></g></g><path class="gcls-5" d="M59.5 26.9a1.09 1.09 0 01.1.5 1.61 1.61 0 01-.5 1.1 1.85 1.85 0 01-1.2.5c-.2 0-.4-.1-.6-.1a2.18 2.18 0 01-.5-.4l-5.5-7.2-2.4 2.3v4a1.5 1.5 0 01-.4 1.1 1.59 1.59 0 01-1.2.4 1.38 1.38 0 01-1.5-1.5V13a1.61 1.61 0 01.5-1.1 1.29 1.29 0 011.2-.4A1.38 1.38 0 0149 13v6.9l8.1-7.9a1.56 1.56 0 011.2-.6 1.23 1.23 0 011 .5 1.78 1.78 0 01.4 1 1.39 1.39 0 01-.5 1L53.7 19l5.6 7.4a.76.76 0 01.2.5zm14.1-.9a6.67 6.67 0 01-2.5 2.5 7.26 7.26 0 01-7 0 6.67 6.67 0 01-2.5-2.5 7.65 7.65 0 010-7.2 6.67 6.67 0 012.5-2.5 7.06 7.06 0 016.9 0 7.47 7.47 0 012.5 2.5 6.44 6.44 0 01.9 3.6 5.94 5.94 0 01-.8 3.6zM71 20.1a4.28 4.28 0 00-1.4-1.6 3.88 3.88 0 00-3.9 0 4 4 0 00-1.4 1.5 4.19 4.19 0 00-.5 2.2 5.45 5.45 0 00.5 2.2 4 4 0 001.4 1.5 3.7 3.7 0 003.8 0 4 4 0 001.4-1.5 5.45 5.45 0 00.5-2.2 4 4 0 00-.4-2.1zm6.1 2.3a1.19 1.19 0 01-.4-1.1 2.1 2.1 0 01.4-1.1 1.5 1.5 0 011.1-.4h4.4a1.38 1.38 0 011.5 1.5 1.78 1.78 0 01-.4 1 1.5 1.5 0 01-1.1.4h-4.4a1.43 1.43 0 01-1.1-.3zm15.2-8.9a1.43 1.43 0 00-.3 1.1v1.2h2.3a1.37 1.37 0 011.4 1.4 1.37 1.37 0 01-1.4 1.4H92v8.9a1.5 1.5 0 01-.4 1.1 1.57 1.57 0 01-2.2 0 1.5 1.5 0 01-.4-1.1v-8.9h-1.3a1.37 1.37 0 01-1.4-1.4 1.37 1.37 0 011.4-1.4h1.4v-1.2a4 4 0 011.3-3.1 5.17 5.17 0 013.7-1.2 2.93 2.93 0 011.6.4 1.21 1.21 0 01.7 1.2 1.69 1.69 0 01-.3 1 1.27 1.27 0 01-.9.4h-.6c-.3-.1-.7-.1-1-.2a1.7 1.7 0 00-1.3.4zm5.3.1a1 1 0 01-.3-1v-.5a1.16 1.16 0 01.4-1 2.66 2.66 0 011.2-.3 2.38 2.38 0 011.2.3 1.28 1.28 0 01.4 1v.5a1.28 1.28 0 01-.4 1 2.77 2.77 0 01-1.3.3 2.66 2.66 0 01-1.2-.3zm2.3 15a1.19 1.19 0 01-1.1.4 1.38 1.38 0 01-1.5-1.5V17.1a1.5 1.5 0 01.4-1.1 1.19 1.19 0 011.1-.4 1.38 1.38 0 011.5 1.5v10.4a1.19 1.19 0 01-.4 1.1z"/></svg><svg viewBox="0 0 504 504" id="mastercard-payment" xmlns="http://www.w3.org/2000/svg"><path d="M504 252c0 83.2-67.2 151.2-151.2 151.2-83.2 0-151.2-68-151.2-151.2 0-83.2 67.2-151.2 150.4-151.2 84.8 0 152 68 152 151.2z" fill="#ffb600"/><path d="M352.8 100.8c83.2 0 151.2 68 151.2 151.2 0 83.2-67.2 151.2-151.2 151.2-83.2 0-151.2-68-151.2-151.2" fill="#f7981d"/><path d="M352.8 100.8c83.2 0 151.2 68 151.2 151.2 0 83.2-67.2 151.2-151.2 151.2" fill="#ff8500"/><path d="M149.6 100.8C67.2 101.6 0 168.8 0 252s67.2 151.2 151.2 151.2c39.2 0 74.4-15.2 101.6-39.2 5.6-4.8 10.4-10.4 15.2-16h-31.2c-4-4.8-8-10.4-11.2-15.2h53.6c3.2-4.8 6.4-10.4 8.8-16h-71.2c-2.4-4.8-4.8-10.4-6.4-16h83.2c4.8-15.2 8-31.2 8-48 0-11.2-1.6-21.6-3.2-32h-92.8c.8-5.6 2.4-10.4 4-16h83.2c-1.6-5.6-4-11.2-6.4-16H216c2.4-5.6 5.6-10.4 8.8-16h53.6c-3.2-5.6-7.2-11.2-12-16h-29.6c4.8-5.6 9.6-10.4 15.2-15.2-26.4-24.8-62.4-39.2-101.6-39.2 0-1.6 0-1.6-.8-1.6z" fill="#ff5050"/><path d="M0 252c0 83.2 67.2 151.2 151.2 151.2 39.2 0 74.4-15.2 101.6-39.2 5.6-4.8 10.4-10.4 15.2-16h-31.2c-4-4.8-8-10.4-11.2-15.2h53.6c3.2-4.8 6.4-10.4 8.8-16h-71.2c-2.4-4.8-4.8-10.4-6.4-16h83.2c4.8-15.2 8-31.2 8-48 0-11.2-1.6-21.6-3.2-32h-92.8c.8-5.6 2.4-10.4 4-16h83.2c-1.6-5.6-4-11.2-6.4-16H216c2.4-5.6 5.6-10.4 8.8-16h53.6c-3.2-5.6-7.2-11.2-12-16h-29.6c4.8-5.6 9.6-10.4 15.2-15.2-26.4-24.8-62.4-39.2-101.6-39.2h-.8" fill="#e52836"/><path d="M151.2 403.2c39.2 0 74.4-15.2 101.6-39.2 5.6-4.8 10.4-10.4 15.2-16h-31.2c-4-4.8-8-10.4-11.2-15.2h53.6c3.2-4.8 6.4-10.4 8.8-16h-71.2c-2.4-4.8-4.8-10.4-6.4-16h83.2c4.8-15.2 8-31.2 8-48 0-11.2-1.6-21.6-3.2-32h-92.8c.8-5.6 2.4-10.4 4-16h83.2c-1.6-5.6-4-11.2-6.4-16H216c2.4-5.6 5.6-10.4 8.8-16h53.6c-3.2-5.6-7.2-11.2-12-16h-29.6c4.8-5.6 9.6-10.4 15.2-15.2-26.4-24.8-62.4-39.2-101.6-39.2h-.8" fill="#cb2026"/><path d="M204.8 290.4l2.4-13.6c-.8 0-2.4.8-4 .8-5.6 0-6.4-3.2-5.6-4.8l4.8-28h8.8l2.4-15.2h-8l1.6-9.6h-16s-9.6 52.8-9.6 59.2c0 9.6 5.6 13.6 12.8 13.6 4.8 0 8.8-1.6 10.4-2.4zm5.6-25.6c0 22.4 15.2 28 28 28 12 0 16.8-2.4 16.8-2.4l3.2-15.2s-8.8 4-16.8 4c-17.6 0-14.4-12.8-14.4-12.8H260s2.4-10.4 2.4-14.4c0-10.4-5.6-23.2-23.2-23.2-16.8-1.6-28.8 16-28.8 36zm28-23.2c8.8 0 7.2 10.4 7.2 11.2H228c0-.8 1.6-11.2 10.4-11.2zM340 290.4l3.2-17.6s-8 4-13.6 4c-11.2 0-16-8.8-16-18.4 0-19.2 9.6-29.6 20.8-29.6 8 0 14.4 4.8 14.4 4.8l2.4-16.8s-9.6-4-18.4-4c-18.4 0-36.8 16-36.8 46.4 0 20 9.6 33.6 28.8 33.6 6.4 0 15.2-2.4 15.2-2.4zm-223.2-63.2c-11.2 0-19.2 3.2-19.2 3.2L95.2 244s7.2-3.2 17.6-3.2c5.6 0 10.4.8 10.4 5.6 0 3.2-.8 4-.8 4h-7.2c-13.6 0-28.8 5.6-28.8 24 0 14.4 9.6 17.6 15.2 17.6 11.2 0 16-7.2 16.8-7.2l-.8 6.4H132l6.4-44c0-19.2-16-20-21.6-20zm3.2 36c0 2.4-1.6 15.2-11.2 15.2-4.8 0-6.4-4-6.4-6.4 0-4 2.4-9.6 14.4-9.6 2.4.8 3.2.8 3.2.8zm33.6 28.8c4 0 24 .8 24-20.8 0-20-19.2-16-19.2-24 0-4 3.2-5.6 8.8-5.6 2.4 0 11.2.8 11.2.8l2.4-14.4s-5.6-1.6-15.2-1.6c-12 0-24 4.8-24 20.8 0 18.4 20 16.8 20 24 0 4.8-5.6 5.6-9.6 5.6-7.2 0-14.4-2.4-14.4-2.4l-2.4 14.4c.8 1.6 4.8 3.2 18.4 3.2zm319.2-77.6l-3.2 21.6s-6.4-8-15.2-8c-14.4 0-27.2 17.6-27.2 38.4 0 12.8 6.4 26.4 20 26.4 9.6 0 15.2-6.4 15.2-6.4l-.8 5.6h16l12-76.8-16.8-.8zm-7.2 42.4c0 8.8-4 20-12.8 20-5.6 0-8.8-4.8-8.8-12.8 0-12.8 5.6-20.8 12.8-20.8 5.6 0 8.8 4 8.8 13.6zm-436 34.4l9.6-57.6 1.6 57.6H52l20.8-57.6-8.8 57.6h16.8l12.8-76.8H67.2l-16 47.2-.8-47.2H27.2l-12.8 76.8h15.2zm248 0c4.8-26.4 5.6-48 16.8-44 1.6-10.4 4-14.4 5.6-18.4h-3.2c-7.2 0-12.8 9.6-12.8 9.6l1.6-8.8h-15.2L260 292h17.6v-.8zm99.2-64c-11.2 0-19.2 3.2-19.2 3.2l-2.4 13.6s7.2-3.2 17.6-3.2c5.6 0 10.4.8 10.4 5.6 0 3.2-.8 4-.8 4h-7.2c-13.6 0-28.8 5.6-28.8 24 0 14.4 9.6 17.6 15.2 17.6 11.2 0 16-7.2 16.8-7.2l-.8 6.4H392l6.4-44c.8-19.2-16-20-21.6-20zm4 36c0 2.4-1.6 15.2-11.2 15.2-4.8 0-6.4-4-6.4-6.4 0-4 2.4-9.6 14.4-9.6 2.4.8 2.4.8 3.2.8zm31.2 28c4.8-26.4 5.6-48 16.8-44 1.6-10.4 4-14.4 5.6-18.4h-3.2c-7.2 0-12.8 9.6-12.8 9.6l1.6-8.8h-15.2L394.4 292H412v-.8z" fill="#fff"/><path d="M180 279.2c0 9.6 5.6 13.6 12.8 13.6 5.6 0 10.4-1.6 12-2.4l2.4-13.6c-.8 0-2.4.8-4 .8-5.6 0-6.4-3.2-5.6-4.8l4.8-28h8.8l2.4-15.2h-8l1.6-9.6m11.2 44.8c0 22.4 7.2 28 20 28 12 0 16.8-2.4 16.8-2.4l3.2-15.2s-8.8 4-16.8 4c-17.6 0-14.4-12.8-14.4-12.8H260s2.4-10.4 2.4-14.4c0-10.4-5.6-23.2-23.2-23.2-16.8-1.6-20.8 16-20.8 36zm20-23.2c8.8 0 10.4 10.4 10.4 11.2H228c0-.8 1.6-11.2 10.4-11.2zM340 290.4l3.2-17.6s-8 4-13.6 4c-11.2 0-16-8.8-16-18.4 0-19.2 9.6-29.6 20.8-29.6 8 0 14.4 4.8 14.4 4.8l2.4-16.8s-9.6-4-18.4-4c-18.4 0-28.8 16-28.8 46.4 0 20 1.6 33.6 20.8 33.6 6.4 0 15.2-2.4 15.2-2.4zM95.2 244.8s7.2-3.2 17.6-3.2c5.6 0 10.4.8 10.4 5.6 0 3.2-.8 4-.8 4h-7.2c-13.6 0-28.8 5.6-28.8 24 0 14.4 9.6 17.6 15.2 17.6 11.2 0 16-7.2 16.8-7.2l-.8 6.4H132l6.4-44c0-18.4-16-19.2-22.4-19.2m12 34.4c0 2.4-9.6 15.2-19.2 15.2-4.8 0-6.4-4-6.4-6.4 0-4 2.4-9.6 14.4-9.6 2.4.8 11.2.8 11.2.8zm8 27.2s4.8 1.6 18.4 1.6c4 0 24 .8 24-20.8 0-20-19.2-16-19.2-24 0-4 3.2-5.6 8.8-5.6 2.4 0 11.2.8 11.2.8l2.4-14.4s-5.6-1.6-15.2-1.6c-12 0-16 4.8-16 20.8 0 18.4 12 16.8 12 24 0 4.8-5.6 5.6-9.6 5.6M469.6 236s-6.4-8-15.2-8c-14.4 0-19.2 17.6-19.2 38.4 0 12.8-1.6 26.4 12 26.4 9.6 0 15.2-6.4 15.2-6.4l-.8 5.6h16l12-76.8m-20.8 41.6c0 8.8-7.2 20-16 20-5.6 0-8.8-4.8-8.8-12.8 0-12.8 5.6-20.8 12.8-20.8 5.6 0 12 4 12 13.6zM29.6 291.2l9.6-57.6 1.6 57.6H52l20.8-57.6-8.8 57.6h16.8l12.8-76.8h-20l-22.4 47.2-.8-47.2h-8.8l-27.2 76.8h15.2zm231.2 0h16.8c4.8-26.4 5.6-48 16.8-44 1.6-10.4 4-14.4 5.6-18.4h-3.2c-7.2 0-12.8 9.6-12.8 9.6l1.6-8.8m69.6 15.2s7.2-3.2 17.6-3.2c5.6 0 10.4.8 10.4 5.6 0 3.2-.8 4-.8 4h-7.2c-13.6 0-28.8 5.6-28.8 24 0 14.4 9.6 17.6 15.2 17.6 11.2 0 16-7.2 16.8-7.2l-.8 6.4H392l6.4-44c0-18.4-16-19.2-22.4-19.2m12 34.4c0 2.4-9.6 15.2-19.2 15.2-4.8 0-6.4-4-6.4-6.4 0-4 2.4-9.6 14.4-9.6 3.2.8 11.2.8 11.2.8zm7.2 28H412c4.8-26.4 5.6-48 16.8-44 1.6-10.4 4-14.4 5.6-18.4h-3.2c-7.2 0-12.8 9.6-12.8 9.6l1.6-8.8" fill="#dce5e5"/></svg><svg fill="#ff5e00" viewBox="0 0 30.316 30.316" id="new" xmlns="http://www.w3.org/2000/svg"><path d="M29.19 6.406c-2.319-4.019-7.478-5.399-11.494-3.08L0 13.542l8.414 14.574L26.11 17.899c4.019-2.319 5.4-7.475 3.08-11.493zm-3.68 10.451L8.855 26.474 1.643 13.983l16.654-9.616c3.444-1.988 7.864-.804 9.853 2.64 1.987 3.444.803 7.863-2.64 9.85z"/><path d="M18.898 5.408L3.284 14.423l6.011 10.409 15.613-9.015a6.01 6.01 0 10-6.01-10.409zm-5.91 13.155l-1.836-1.104a17.996 17.996 0 01-1.588-1.062l-.015.018c.346.541.699 1.127 1.096 1.813l.732 1.268-.875.504-2.428-4.207 1.11-.643 1.764 1.038c.506.3 1.059.68 1.52 1.045l.019-.011a18.051 18.051 0 01-1.093-1.707l-.71-1.229.873-.507 2.43 4.208-.999.576zm1.824-1.051l-2.429-4.208 2.597-1.499.45.78-1.641.947.503.874 1.549-.894.447.773-1.549.895.577.999 1.729-.999.45.779-2.683 1.553zm6.313-3.646l-1.4-1.604c-.324-.378-.621-.73-.948-1.184l-.013.007c.199.519.36.958.506 1.439l.646 2.041-1.041.603-3.429-3.63 1.017-.588 1.321 1.551c.382.446.782.94 1.098 1.323l.012-.007a35.86 35.86 0 01-.58-1.638l-.639-1.929 1.012-.584 1.361 1.579c.377.438.705.849 1.039 1.28l.012-.008c-.209-.505-.398-1.052-.6-1.601l-.652-1.921.97-.56 1.342 4.836-1.034.595zm4.184-3.716a1.302 1.302 0 11-1.3-2.254 1.302 1.302 0 011.3 2.254z"/></svg><svg viewBox="0 0 100 100" id="pandora-icon" xmlns="http://www.w3.org/2000/svg"><path fill="#6666a4" d="M23.925 84V16h34s22 2 22 27c0 30-35 25-35 25v11a5 5 0 01-5 5h-16z"/><path fill="#78a1d1" d="M40.233 84.043s1.618-3.76-1.065-6.444c-.867-.843-1.735-1.47-3.012-2.241-1.253-.771-2.626-1.759-3.71-2.843-2.144-2.168-4-4.53-5.132-7.349a31.963 31.963 0 01-.651-1.759c-.289-.747-.554-1.446-.916-2.144-.313-.602-.889-1.21-1.322-1.764 1.108.891 1.13.125 2.069 1.258.916 1.108 1.662 2.433 2.409 3.566.096.145.169.265.289.385 1.446 2.024 3.445 3.662 5.493 4.987.096.048.169.12.265.145 1.012.626 2.024 1.06 3.204 1.47 1.277.41 2.915 1.108 4.289 1.976.747.458 1.422.94 2.072 1.422l.41 6.292-4 3-.692.043"/><path fill="#c26dab" d="M23.925 83l16 1 .78-2.829L38.925 77l-4.455-2.776-2.74-2.452L27.925 66l-1-3-3-4z"/><path fill="#f58f8f" d="M24.843 32.994L23.925 16h9.556l16.444 15 11.75 17.5 11.842 12.064-8.2 5.209L46.925 53l-14-11z"/><path fill="#f15c6c" d="M35.425 16.5h10s12.5 4.5 14.5 10.5 17 18 17 18l2.265 5-5.265 9-14-12-5.981-8.472s-7.019-8.877-9.019-9.202S29.887 19 33.906 16l1.519.5zm-11.5 27.928l1.136-14.146L31.925 37s11 6 10 8 10 12 10 12l11.774 9.356L49.925 68l-12-8-5.452-9.5-4.548-4.5-3.5-1.572h-.5z"/><path fill="#78a1d1" d="M79.087 41.353c-1.349-1.06-2.915-2.096-4.554-2.819-1.638-.723-3.036-1.084-4.241-1.687a14.995 14.995 0 01-.602-.313c-2.217-1.229-4.433-3.06-6.048-5.108-.169-.217-.313-.434-.482-.675-.675-1.012-1.325-2.144-2.12-3.18-.988-1.277-1.887-2.361-3.092-3.325.964 1.205 1.574 2.506 2.225 3.855.217.458.41.94.578 1.422.361.94.675 1.928 1.132 2.939.699 1.518 1.638 2.915 2.65 4.192 1.036 1.277 2.168 2.53 3.542 3.614 1.397 1.132 2.915 1.903 3.951 2.723 1.084.771 1.952 1.687 2.819 2.771l4.578 5.738-.336-10.147z"/><path fill="#bad3e9" d="M59.485 66.91c-.169-.289-.337-.578-.506-.843a19.476 19.476 0 00-2.289-3.108c-.867-1.012-1.759-1.831-2.867-2.578-1.108-.723-2.674-1.614-3.927-2.723-1.277-1.108-2.337-2.313-3.301-3.542-.988-1.253-1.879-2.65-2.506-4.12-.386-.891-.675-1.759-1.012-2.602-.193-.53-.41-1.06-.675-1.566-1.221-2.13-1.594-2.689-2.434-3.735 1.181.94 2.289 2 3.253 3.204.867 1.06 1.542 2.289 2.241 3.325l.289.434c1.662 2.217 4 4.12 6.313 5.421.024 0 .024.024.048.024 1.181.651 2.361 1.012 3.927 1.614 1.566.602 3.156 1.542 4.506 2.53 1.325.916 2.723 2.337 3.71 3.566.699.819 1.349 1.614 1.952 2.482"/><path fill="#78a1d1" d="M73.322 54.192c-1.071-1.135-2.163-2.035-3.341-2.934a17.269 17.269 0 00-3.941-2.163c-1.199-.471-2.185-.792-3.105-1.285a1.743 1.743 0 01-.343-.171c-2.056-1.199-4.133-2.913-5.547-4.904-.107-.15-.193-.3-.3-.471-.578-.921-1.178-1.97-1.885-2.87-.835-1.071-2.908-3.558-3.936-4.393.835 1.028 2.445 3.564 3.023 4.721.257.493.72 1.086.913 1.6.257.685.514 1.414.814 2.163.557 1.306 1.349 2.506 2.206 3.598s1.778 2.142 2.891 3.105c1.114.985 2.484 1.735 3.491 2.377 1.028.664 1.82 1.371 2.634 2.249.771.857 1.563 1.842 2.12 2.784.621.964.942 1.82 1.435 3.084l.664 1.478 4.856-4.348c-.642-1.05-1.686-2.635-2.649-3.62z"/><path fill="#bad3e9" d="M45.425 68.5c-1.253-.771-4.689-3.734-5.773-4.819-2.144-2.168-4-4.53-5.132-7.349-.169-.41-.313-.819-.458-1.205-.337-.94-.675-1.831-1.108-2.699a20.396 20.396 0 00-1.687-2.65l-.072-.072c-.169-.265-.577-.942-.77-1.207 1.108.891 2.336 2.291 3.276 3.423.916 1.108 1.662 2.433 2.409 3.566.241.386.53.747.819 1.084 1.397 1.711 3.156 3.108 4.963 4.289.313.193.651.386.964.554.795.41 1.614.747 2.506 1.06 1.277.41 2.915 1.108 4.289 1.976 1.205.747 5.074 4.183 4.774 4.048"/><path fill="#1f212b" d="M57.925 15h-34a1 1 0 00-1 1v68a1 1 0 001 1h16c3.309 0 6-2.691 6-6v-9.88c4.1.391 18.109 1.059 27.188-6.815 5.184-4.495 7.812-10.99 7.812-19.305 0-25.617-22.681-27.975-23-28zm17.659 41.281c-.557-.828-1.241-1.759-1.898-2.432-1.16-1.229-2.32-2.163-3.41-2.995a17.858 17.858 0 00-4.053-2.226c-.314-.123-.613-.236-.901-.345-.804-.304-1.498-.565-2.228-.947-.076-.026-.154-.073-.25-.13-2.214-1.291-4.128-2.982-5.391-4.762a4.666 4.666 0 01-.195-.305l-.477-.771c-.473-.769-.96-1.563-1.526-2.284-.736-.944-1.706-2.157-2.573-3.073-3.628-4.939-9.262-8.301-9.494-8.437a39.111 39.111 0 01-3.275-2.254c-4.801-3.703-6.051-6.823-6.375-8.322l12.782-.002c.741.307 8.458 3.593 11.857 8.42.564.865 1.005 1.778 1.465 2.732l.08.166c.197.416.385.878.563 1.388.117.304.229.612.342.926.239.659.485 1.34.803 2.043.644 1.398 1.531 2.803 2.716 4.299.877 1.079 2.08 2.474 3.616 3.687.795.645 1.634 1.179 2.373 1.65.586.373 1.14.726 1.603 1.091.929.66 1.768 1.485 2.75 2.712l3.664 3.791c-.553 2.358-1.41 4.486-2.568 6.38zm-.347-10.831c-1.012-1.266-1.913-2.15-2.9-2.852-.482-.381-1.057-.747-1.664-1.135-.753-.479-1.531-.975-2.287-1.588-1.464-1.155-2.62-2.497-3.46-3.531-1.131-1.428-1.978-2.767-2.586-4.088-.3-.664-.54-1.327-.772-1.969a41.066 41.066 0 00-.344-.93 15.332 15.332 0 00-.6-1.475l-.044-.091.064.083c.52.677.981 1.406 1.429 2.111.226.355.447.705.679 1.052l.117.169c.127.183.245.354.381.528 1.602 2.031 3.86 3.939 6.196 5.234.217.121.409.218.623.324.667.333 1.386.595 2.146.87.671.244 1.364.495 2.115.826 1.426.629 2.921 1.556 4.447 2.755.035.028.075.041.115.058.012.397.032.786.032 1.196 0 2.035-.178 3.943-.511 5.735l-3.176-3.282zm3.606-4.901c-1.401-1.048-2.781-1.887-4.108-2.472-.782-.346-1.492-.603-2.179-.852-.732-.267-1.425-.518-2.061-.836-.18-.09-.36-.18-.563-.293-2.226-1.233-4.375-3.048-5.895-4.977-.122-.157-.23-.314-.347-.481l-.114-.164c-.221-.33-.438-.674-.659-1.022-.459-.724-.934-1.473-1.481-2.187-.932-1.204-1.876-2.37-3.176-3.41-.015-.012-.033-.016-.048-.026-2.715-3.203-6.942-5.591-9.482-6.833l9.103-.001c.831.076 19.672 2.051 21.01 23.554zm-46.332-23.55c.294 1.646 1.553 5.074 6.791 9.114a40.183 40.183 0 003.369 2.317c.052.031 4.775 2.851 8.268 6.988-.023.137 2.031 3.465 2.566 4.533.106.206.247.428.391.653.195.309.397.628.497.893l.238.643c.182.495.371 1.008.584 1.541.511 1.197 1.254 2.411 2.271 3.71 1.042 1.327 1.954 2.306 2.954 3.172.894.789 1.919 1.417 2.824 1.972.257.157.502.307.727.45.923.596 1.682 1.244 2.534 2.164.882.979 1.594 1.913 2.071 2.72.563.875.864 1.646 1.319 2.813l.524 1.185a23.342 23.342 0 01-3.981 2.322 33.395 33.395 0 00-1.814-2.291c-1.161-1.445-2.587-2.815-3.805-3.656-1.073-.785-2.746-1.872-4.621-2.593a94.443 94.443 0 00-1.136-.425c-1.011-.373-1.884-.694-2.729-1.16l-.033-.018-.021-.011c-2.443-1.376-4.626-3.25-6.132-5.258l-.29-.435a36.315 36.315 0 01-.675-1.05c-.486-.774-.989-1.575-1.59-2.309-.922-1.151-3.506-3.375-3.601-3.383-2.9-2.389-5.698-3.958-5.844-4.04-3.505-1.947-7.695-6.445-9.243-8.181V17l7.587-.001zm27.231 49.368c-.113-.191-.226-.388-.336-.56a19.985 19.985 0 00-2.336-3.174c-.925-1.079-1.868-1.927-2.974-2.671a59.825 59.825 0 00-.816-.519c-.99-.622-2.112-1.328-3.056-2.163-1.095-.949-2.122-2.053-3.236-3.474-1.056-1.339-1.876-2.687-2.439-4.009-.229-.53-.424-1.052-.615-1.563a42.761 42.761 0 00-.387-1.012 13.48 13.48 0 00-.657-1.542c.541.673 1.012 1.421 1.466 2.145.233.372.462.734.691 1.076l.305.455c1.606 2.141 3.903 4.114 6.468 5.557l.037.02a.485.485 0 01.023.012c.909.5 1.813.833 2.858 1.219.354.13.726.267 1.122.42 1.384.531 2.942 1.407 4.401 2.474 1.153.797 2.501 2.094 3.614 3.48.51.596 1.088 1.308 1.642 2.068-1.895.787-3.853 1.356-5.775 1.761zm-5.929.814c-1.458-1.39-3.859-3.13-3.895-3.152-1.245-.786-2.892-1.545-4.39-2.024a18.845 18.845 0 01-2.436-1.029 19.55 19.55 0 01-.927-.532c-2.063-1.348-3.649-2.718-4.856-4.195a8.75 8.75 0 01-.782-1.034c-.211-.32-.423-.656-.638-.998-.555-.882-1.129-1.794-1.804-2.611-1.194-1.439-2.181-2.48-3.022-3.21-.937-1.076-4.048-4.47-6.139-4.457V30.876c1.931 2.101 5.554 5.782 8.757 7.562a43.29 43.29 0 016.229 4.389c.63.816 1.038 1.471 2.049 3.233.226.431.431.908.653 1.52.132.331.257.666.384 1.005.197.528.397 1.064.633 1.608.597 1.4 1.463 2.825 2.572 4.232 1.153 1.471 2.223 2.619 3.363 3.607 1.001.887 2.16 1.615 3.183 2.258.285.179.555.349.796.506 1.037.698 1.891 1.465 2.772 2.493a19.154 19.154 0 012.241 3.046c.047.075.095.16.142.238-1.696.31-3.35.502-4.885.608zm-9.888 6.485a22.79 22.79 0 00-1.213-.802c-1.24-.783-2.886-1.542-4.393-2.026-1.287-.446-2.216-.871-3.104-1.422-.045-.028-.101-.063-.152-.075a.888.888 0 00-.105-.064c-2.363-1.529-4.115-3.118-5.411-4.921-.066-.066-.116-.142-.226-.307-.21-.319-.421-.654-.636-.995-.555-.883-1.13-1.796-1.806-2.615-.576-.695-.91-.813-1.318-.904a1.577 1.577 0 01-.636-.287V44.933c1.217-.02 3.501 2.046 5.029 3.721a.482.482 0 00.067.139c.135.185.378.579.564.879l.188.303c.02.03.043.06.068.085l.024.017a20.174 20.174 0 011.641 2.576c.398.796.711 1.602 1.088 2.65l.117.317c.108.294.221.598.344.898 1.022 2.544 2.688 4.932 5.243 7.516.818.818 3.031 2.761 4.626 3.999v5.633zm-19-12.75c.147.196.28.39.378.578.326.632.576 1.274.84 1.955l.046.118c.195.587.416 1.174.661 1.787 1.021 2.545 2.687 4.933 5.242 7.516 1.239 1.239 2.751 2.27 3.805 2.917 1.309.791 2.128 1.399 2.917 2.167 1.698 1.697 1.507 3.858 1.226 5.035-.04.001-.076.011-.115.011h-15V60.916zm16.172 21.888c.263-1.446.267-3.715-1.582-5.563-.853-.83-1.723-1.478-3.099-2.309-1.005-.618-2.447-1.6-3.616-2.769-2.457-2.483-4.053-4.767-5.023-7.183a32.168 32.168 0 01-.648-1.754l-.054-.141a25.276 25.276 0 00-.693-1.667c.523.683.997 1.436 1.457 2.166.218.348.433.688.688 1.076.085.129.173.263.258.338 1.316 1.844 3.158 3.518 5.629 5.116.015.01.082.051.098.059.055.036.13.086.228.123.939.576 1.916 1.022 3.263 1.488 1.442.464 3.003 1.183 4.182 1.928.634.387 1.204.792 1.741 1.184V79c-.001 1.795-1.197 3.3-2.829 3.804zm3.968-15.794a.98.98 0 00-.638.149c-1.495-1.172-3.575-2.984-4.419-3.829-2.457-2.484-4.053-4.768-5.025-7.187-.12-.293-.228-.585-.332-.868l-.117-.316c-.264-.732-.571-1.565-.956-2.388.527.686 1.004 1.441 1.466 2.177.22.349.435.69.643 1.006.278.445.608.846.856 1.136 1.267 1.55 2.927 2.986 5.089 4.398.322.198.668.396.996.572.767.396 1.583.741 2.583 1.093 1.436.46 2.996 1.178 4.178 1.924.596.37 1.895 1.447 2.972 2.382-4.202.167-7.224-.239-7.296-.249zm26.744-6.221c-.182.158-.371.304-.557.455l-.334-.744-.07-.181c-.46-1.181-.793-2.033-1.4-2.976-.507-.859-1.24-1.822-2.184-2.87-.917-.989-1.733-1.686-2.732-2.331a51.53 51.53 0 00-.745-.462c-.87-.532-1.855-1.136-2.688-1.871-.953-.825-1.824-1.762-2.825-3.036-.963-1.229-1.663-2.369-2.135-3.475a61.46 61.46 0 01-.57-1.505l-.239-.647c-.136-.361-.366-.726-.59-1.077-.01-.016-.02-.03-.028-.046.435.594.831 1.24 1.218 1.87l.476.77c.077.126.149.243.232.36 1.344 1.894 3.369 3.686 5.698 5.044.122.073.261.157.364.185.71.379 1.433.652 2.269.968.284.107.58.219.895.342a16.783 16.783 0 013.814 2.094c1.048.8 2.17 1.703 3.288 2.887.714.73 1.47 1.802 2.039 2.675a19.216 19.216 0 01-3.196 3.571z"/></svg><svg viewBox="0 0 488.8 488.8" id="paypal-payment" xmlns="http://www.w3.org/2000/svg"><path d="M381.6 200.4c-12 0-21.6 3.2-29.6 4.8l-2.4 18.4c4-1.6 15.2-4.8 24.8-5.6 9.6 0 15.2 1.6 13.6 10.4-28.8 0-48 5.6-52 24.8-5.6 32 29.6 32.8 43.2 18.4l-1.6 8.8h25.6l11.2-52c4-21.6-15.2-28.8-32.8-28zm1.6 53.6c-1.6 6.4-7.2 8.8-13.6 9.6-5.6 0-10.4-3.2-7.2-9.6 3.2-4.8 10.4-4.8 16-4.8h6.4c-.8-.8-1.6 2.4-1.6 4.8z" fill="#32a6ce"/><path d="M349.6 223.6c4-1.6 15.2-4.8 24.8-5.6 9.6 0 15.2 1.6 13.6 10.4-28.8 0-48 5.6-52 24.8-5.6 32 29.6 32.8 43.2 18.4l-1.6 8.8h25.6l11.2-52c4.8-21.6-15.2-27.2-32.8-27.2m1.6 52.8c-1.6 6.4-7.2 8.8-13.6 9.6-5.6 0-10.4-3.2-7.2-9.6 3.2-4.8 10.4-4.8 16-4.8h6.4c-.8-.8-1.6 2.4-1.6 4.8z" fill="#1a80ad"/><path fill="#32a6ce" d="M436 176.4l-20.8 104h25.6l21.6-104z"/><path fill="#1a80ad" d="M454.4 176.4l-39.2 104h25.6l21.6-104H436z"/><path d="M316.8 176.4h-47.2l-20.8 104h28l7.2-32h20c19.2 0 35.2-11.2 39.2-31.2 4-23.2-12.8-40.8-26.4-40.8zm-.8 36c-1.6 7.2-8.8 12-16 12h-12.8l5.6-24h13.6c7.2 0 11.2 4.8 9.6 12z" fill="#32a6ce"/><path d="M316.8 176.4h-32l-36.8 104h28l7.2-32h20c19.2 0 35.2-11.2 39.2-31.2 4.8-23.2-12-40.8-25.6-40.8zm-.8 36c-1.6 7.2-8.8 12-16 12h-12.8l5.6-24h13.6c7.2 0 11.2 4.8 9.6 12z" fill="#1a80ad"/><path d="M132 200.4c-12 0-21.6 3.2-28.8 4.8l-2.4 18.4c3.2-1.6 15.2-4.8 24.8-5.6 9.6 0 15.2 1.6 13.6 10.4-28 0-47.2 5.6-51.2 24.8-5.6 32 28.8 32.8 42.4 18.4l-1.6 8.8h25.6l11.2-52c4-21.6-16-28.8-33.6-28zm2.4 53.6c-1.6 6.4-7.2 8.8-13.6 9.6-5.6 0-10.4-3.2-6.4-9.6 3.2-4.8 10.4-4.8 15.2-4.8h6.4c-.8-.8-1.6 2.4-1.6 4.8z" fill="#21789e"/><path d="M101.6 223.6c3.2-1.6 15.2-4.8 24.8-5.6 9.6 0 15.2 1.6 13.6 10.4-28 0-47.2 5.6-51.2 24.8-5.6 32 28.8 32.8 42.4 18.4l-2.4 8.8h25.6l11.2-52c4.8-21.6-15.2-27.2-32.8-27.2m1.6 52.8c-1.6 6.4-7.2 8.8-13.6 9.6-5.6 0-10.4-3.2-6.4-9.6 3.2-4.8 10.4-4.8 15.2-4.8h6.4c-.8-.8-1.6 2.4-1.6 4.8z" fill="#1a5b80"/><path fill="#21789e" d="M176 200.4h25.6l4 44.8 25.6-44.8h26.4l-60.8 112H168l18.4-33.6z"/><path fill="#1a5b80" d="M201.6 202l4 44 25.6-45.6h26.4l-60.8 112H168l18.4-32.8"/><path d="M68.8 176.4h-48L0 280.4h28l7.2-32h20c19.2 0 35.2-11.2 39.2-31.2 4.8-23.2-12-40.8-25.6-40.8zm-.8 36c-1.6 7.2-8.8 12-16 12H39.2l5.6-24h13.6c7.2 0 11.2 4.8 9.6 12z" fill="#21789e"/><path d="M68.8 176.4H47.2L0 280.4h28l7.2-32h20c19.2 0 35.2-11.2 39.2-31.2 4.8-23.2-12-40.8-25.6-40.8zm-.8 36c-1.6 7.2-8.8 12-16 12H39.2l5.6-24h13.6c7.2 0 11.2 4.8 9.6 12z" fill="#1a5b80"/><path d="M127.2 228.4c-21.6 1.6-36 8-39.2 24-5.6 32 28.8 32.8 42.4 18.4l-1.6 9.6h25.6l4-19.2-31.2-32.8zm7.2 25.6c-1.6 6.4-7.2 8.8-13.6 9.6-5.6 0-10.4-3.2-6.4-9.6 3.2-4.8 10.4-4.8 15.2-4.8h6.4c-.8-.8-1.6 2.4-1.6 4.8zm72.8-9.6l-1.6 2.4 16.8 16 35.2-62.4h-26.4zM28 280.4l7.2-32-32.8 32z" fill="#06435e"/><path d="M276 280.4l7.2-33.6v.8l-32.8 32.8zm100-52c-21.6 1.6-36 8-39.2 24-5.6 32 29.6 32.8 43.2 18.4l-2.4 9.6h25.6l4-19.2-31.2-32.8zm7.2 25.6c-1.6 6.4-7.2 8.8-13.6 9.6-5.6 0-10.4-3.2-7.2-9.6 3.2-4.8 10.4-4.8 16-4.8h6.4c-.8-.8-1.6 2.4-1.6 4.8zm50.4-20.8l-18.4 47.2h25.6l7.2-32z" fill="#2273aa"/><path d="M468 193.2V182h-4v-1.6h10.4v1.6h-4v11.2H468zm8 0v-12.8h2.4l3.2 8.8c0 .8.8 1.6.8 1.6 0-.8 0-.8.8-2.4l3.2-8.8h2.4v12.8h-1.6v-11.2l-4 11.2h-2.4l-4-11.2v11.2h-.8v.8z" fill="#32a6ce"/></svg><svg viewBox="0 0 58 58" id="play-icon" xmlns="http://www.w3.org/2000/svg"><circle cx="29" cy="29" r="29" fill="#ff5e00"/><g fill="#fff"><path d="M44 29L22 44V14z"/><path d="M22 45a.999.999 0 01-1-1V14a.999.999 0 011.564-.826l22 15a1.001 1.001 0 01-.001 1.652l-22 15A1.002 1.002 0 0122 45zm1-29.107v26.215L42.225 29 23 15.893z"/></g></svg><svg viewBox="0 0 48 48" id="spotify-icon" xmlns="http://www.w3.org/2000/svg"><path fill="#71c598" d="M25.912 3.584c-5.156.124-7.375.841-10.887 2.013-1.384.462-2.21 1.161-3.421 1.975-1.438.966-3.187 2.914-4.166 4.343-4.159 6.073-4.983 14.373-1.778 21 1.88 3.886 5.031 7.195 8.95 9.005 3.975 1.836 7.577 2.716 11.929 2.232 4.19-.466 4.947-.873 8.089-2.793.867-.53 2.48-1.787 3.142-2.558.803-.934 2.89-3.095 3.55-4.135 2.328-3.666 3.015-6.388 2.972-12.017-.014-1.778-.525-3.887-1.096-5.571-1.163-3.432-2.292-5.975-5.206-8.128-3.211-2.373-5.161-4.574-12.102-5.375"/><path fill="#010101" d="M24.212 44.785c-3.191 0-6.246-.764-9.812-2.411-3.919-1.811-7.183-5.092-9.19-9.241-3.246-6.711-2.533-15.149 1.816-21.5.999-1.459 2.797-3.465 4.3-4.476.235-.158.456-.312.669-.461.908-.633 1.692-1.179 2.873-1.573 3.421-1.142 5.69-1.898 10.911-2.036a.549.549 0 01.167-.009c6.16.711 8.462 2.488 11.127 4.546.393.303.793.612 1.215.924 3.141 2.321 4.296 5.164 5.383 8.37.412 1.217 1.105 3.579 1.122 5.728.043 5.668-.669 8.54-3.05 12.289-.49.773-1.681 2.079-2.638 3.129-.382.42-.724.794-.956 1.064-.733.854-2.42 2.145-3.26 2.658-3.205 1.959-4.032 2.391-8.296 2.863-.808.09-1.599.136-2.381.136zm1.719-40.701h-.007c-5.157.125-7.378.866-10.74 1.988-1.044.348-1.739.832-2.618 1.444-.217.152-.443.309-.683.471-1.398.94-3.087 2.829-4.032 4.21-4.15 6.061-4.833 14.106-1.741 20.5 1.906 3.941 4.999 7.056 8.709 8.769 4.264 1.971 7.751 2.624 11.664 2.189 4.062-.45 4.776-.822 7.885-2.723.871-.533 2.414-1.748 3.023-2.457.236-.275.585-.657.976-1.086.881-.967 2.088-2.291 2.532-2.99 2.286-3.603 2.936-6.237 2.894-11.746-.012-1.468-.401-3.44-1.069-5.415-1.068-3.151-2.117-5.733-5.029-7.886-.428-.316-.834-.63-1.232-.937-2.534-1.955-4.724-3.644-10.532-4.331z"/><path fill="#d6e5e5" d="M22.929 27.838c-2.716-.138-2.342-.062-5.169.193-.965.087-1.967.253-2.928.372-.647.08-1.326.173-1.846.567-.52.393-.791 1.194-.397 1.713.364.479 1.071.549 1.667.469 3.921-.527 5.509-.682 9.002-.637 1.526.02 4.506.769 5.886 1.42.934.44 2.731 1.312 3.262 1.494.697.238 1.201-.399 1.363-.937.148-.491-.323-.988-.639-1.252-2.418-2.023-7.048-3.14-10.19-3.406m1.531-3.307c-1.434-.407-2.565-.288-3.803-.26-.656.015-2.594.178-3.238.307-1.562.312-1.997.42-3.559.732-.36.072-.728.144-1.093.098a1.742 1.742 0 01-1.363-1.042c-.078-.188-.121-.401-.06-.595.08-.254.073-.851.883-1.153 3.186-1.185 4.792-1.124 7.516-1.324 3.498-.256 5.457.393 8.136.926 1.751.348 3.585 1.101 5.257 1.728 1.279.479 2.409.881 2.669 2.043.082.368-.024 1.064-.275 1.346-.175.196-.335.42-.594.463-.83.139-1.603-.388-2.385-.697-.535-.211-1.46-.549-1.998-.755-1.724-.66-3.123-1.179-6.137-1.819m.207-6.382c-3.739-.572-7.626-.157-11.299.749-.453.112-.91.235-1.376.223-.466-.012-.952-.182-1.232-.555-.24-.32-.425-.593-.473-.99-.036-.3.06-.764.195-1.034.109-.217.312-.37.515-.504a7.167 7.167 0 013.562-1.17c.749-.038 1.578-.332 2.324-.401.678-.063 2.676-.278 3.357-.251 3.683.15 3.407-.15 7.095.311.611.076 1.725.374 2.329.492 1.062.207 1.414.274 2.433.638.992.354 1.545.437 2.079.685.604.281 1.476.599 2.061.918 1.369.746 1.57.695 2.399 1.582.724.774.249 1.991-.142 2.364-.223.213-.424.299-.718.392-.997.318-2.069-.078-3.029-.495-2.248-.977-4.478-2.116-6.906-2.446-.969-.131-1.729-.333-3.15-.508"/><path fill="#010101" d="M32.703 33.979c-.151 0-.306-.026-.459-.079-.455-.154-1.695-.744-2.691-1.218l-.622-.296c-1.378-.649-4.297-1.354-5.679-1.372-3.378-.043-4.939.096-8.93.632-.938.13-1.716-.114-2.131-.661a1.492 1.492 0 01-.274-1.114c.069-.502.356-.988.767-1.3.643-.485 1.443-.585 2.086-.664.342-.042.688-.091 1.037-.14.638-.089 1.28-.178 1.908-.234.606-.055 1.064-.101 1.437-.139 1.369-.138 1.627-.165 3.733-.059a.64.64 0 01.098-.001c3.467.293 8.048 1.495 10.47 3.521.686.573.969 1.206.796 1.779-.16.531-.508.977-.93 1.193a1.339 1.339 0 01-.616.152zm-10.532-3.973c.345 0 .708.003 1.093.008 1.649.021 4.728.824 6.092 1.468l.626.297c.922.438 2.184 1.039 2.585 1.175a.35.35 0 00.294-.016c.178-.091.351-.329.43-.592.045-.151-.152-.449-.48-.724-2.226-1.861-6.645-3.004-9.842-3.286a.352.352 0 01-.065.001c-2.094-.105-2.301-.085-3.651.052-.376.038-.837.085-1.448.14-.611.055-1.238.143-1.859.229-.354.049-.706.098-1.052.141-.552.068-1.178.146-1.606.47-.197.149-.347.4-.379.639a.485.485 0 00.079.372c.28.367.99.302 1.203.276 3.592-.484 5.245-.65 7.98-.65zm12.498-1.687c-.638 0-1.221-.271-1.746-.515-.182-.084-.362-.168-.545-.24-.316-.124-.771-.294-1.199-.454l-.794-.299c-1.605-.614-2.991-1.146-6.062-1.796a.474.474 0 01-.129-.047c-1.079-.282-1.989-.252-2.951-.219l-.564.017c-.648.015-2.547.177-3.152.297-.767.153-1.262.258-1.752.361-.508.106-1.011.213-1.806.371-.375.076-.803.162-1.253.104a2.238 2.238 0 01-1.762-1.348c-.139-.336-.164-.651-.074-.937.094-.428.244-1.12 1.186-1.47 2.804-1.043 4.462-1.148 6.561-1.281.347-.021.708-.045 1.092-.073 2.94-.213 4.855.201 6.884.643.447.097.905.196 1.387.292 1.528.304 3.076.892 4.573 1.461l.762.289c1.351.506 2.667.999 2.98 2.401.115.511-.018 1.371-.392 1.789-.236.273-.479.555-.883.622a1.952 1.952 0 01-.361.032zm-10.002-4.253c3.052.653 4.456 1.19 6.076 1.812l.787.296c.434.162.895.334 1.216.461.199.078.399.171.599.263.537.25 1.044.483 1.521.405.048-.008.158-.136.23-.22l.071-.081c.113-.128.221-.643.162-.904-.187-.833-.987-1.172-2.278-1.656l-.844-.318c-1.458-.555-2.966-1.129-4.413-1.416-.487-.097-.95-.197-1.403-.296-2.042-.442-3.804-.825-6.599-.621-.388.028-.752.051-1.103.073-2.096.133-3.61.229-6.276 1.221-.428.159-.477.386-.534.648-.015.071-.03.134-.046.186-.006.02-.021.095.044.253.16.389.547.685.963.737.287.033.616-.029.932-.093.791-.157 1.291-.263 1.796-.369.494-.104.991-.209 1.763-.363.667-.133 2.643-.301 3.325-.316l.553-.017c1.035-.035 2.107-.07 3.398.295.02.005.04.013.06.02z"/><path fill="#010101" d="M36.972 22.208c-.859 0-1.702-.326-2.455-.652-.361-.157-.722-.318-1.083-.479-1.83-.817-3.723-1.662-5.691-1.93a26.993 26.993 0 01-1.199-.199 30.048 30.048 0 00-1.914-.304.414.414 0 01-.07-.006c-3.32-.51-7.055-.259-11.104.74l-.103.025c-.447.11-.906.23-1.406.212-.681-.018-1.271-.292-1.618-.755-.275-.367-.507-.714-.569-1.23-.046-.382.06-.948.245-1.318.162-.322.438-.533.687-.697a7.635 7.635 0 013.811-1.251c.359-.019.75-.105 1.165-.197.374-.082.761-.168 1.139-.203l.45-.043c1.202-.117 2.422-.229 2.975-.209 1.384.058 2.219.048 2.89.043 1.161-.011 1.925-.019 4.246.271.412.052 1.022.193 1.561.318.302.07.586.136.802.179 1.076.209 1.464.284 2.506.657.442.157.795.26 1.097.348.376.11.701.204 1.025.355.223.104.484.212.753.324.468.195.951.397 1.337.608.334.182.598.315.817.428.703.356 1.023.52 1.708 1.25.946 1.012.396 2.535-.163 3.068-.284.271-.549.392-.91.507-.312.099-.622.14-.929.14zm-12.299-4.564l.046.004c.836.102 1.447.214 2.004.315.391.072.754.139 1.153.193 2.111.286 4.069 1.16 5.964 2.007.358.159.716.319 1.074.475.855.373 1.839.744 2.678.478.248-.079.375-.135.524-.277.229-.218.624-1.126.123-1.661-.563-.602-.765-.704-1.431-1.042a32.763 32.763 0 01-.843-.441c-.341-.187-.8-.378-1.243-.563a20.394 20.394 0 01-.789-.34c-.256-.119-.533-.2-.884-.302-.317-.093-.688-.201-1.153-.367-.972-.347-1.312-.413-2.322-.61-.266-.052-.561-.12-.876-.193-.514-.119-1.097-.255-1.458-.3-2.255-.281-2.995-.275-4.112-.264-.683.006-1.531.015-2.941-.043-.526-.028-2.029.124-2.835.204l-.455.044a8.41 8.41 0 00-1.015.184c-.437.097-.887.196-1.33.219a6.649 6.649 0 00-3.312 1.088c-.139.092-.288.2-.344.312-.098.194-.168.56-.146.75.03.251.141.435.376.751.159.212.475.345.844.354.368.025.741-.083 1.139-.183l.104-.025c4.166-1.031 8.021-1.288 11.46-.767z"/></svg><svg viewBox="0 0 504 504" id="visa-payment" xmlns="http://www.w3.org/2000/svg"><path fill="#3c58bf" d="M184.8 324.4l25.6-144h40l-24.8 144z"/><path fill="#293688" d="M184.8 324.4l32.8-144h32.8l-24.8 144z"/><path d="M370.4 182c-8-3.2-20.8-6.4-36.8-6.4-40 0-68.8 20-68.8 48.8 0 21.6 20 32.8 36 40s20.8 12 20.8 18.4c0 9.6-12.8 14.4-24 14.4-16 0-24.8-2.4-38.4-8l-5.6-2.4-5.6 32.8c9.6 4 27.2 8 45.6 8 42.4 0 70.4-20 70.4-50.4 0-16.8-10.4-29.6-34.4-40-14.4-7.2-23.2-11.2-23.2-18.4 0-6.4 7.2-12.8 23.2-12.8 13.6 0 23.2 2.4 30.4 5.6l4 1.6 6.4-31.2z" fill="#3c58bf"/><path d="M370.4 182c-8-3.2-20.8-6.4-36.8-6.4-40 0-61.6 20-61.6 48.8 0 21.6 12.8 32.8 28.8 40s20.8 12 20.8 18.4c0 9.6-12.8 14.4-24 14.4-16 0-24.8-2.4-38.4-8l-5.6-2.4-5.6 32.8c9.6 4 27.2 8 45.6 8 42.4 0 70.4-20 70.4-50.4 0-16.8-10.4-29.6-34.4-40-14.4-7.2-23.2-11.2-23.2-18.4 0-6.4 7.2-12.8 23.2-12.8 13.6 0 23.2 2.4 30.4 5.6l4 1.6 6.4-31.2z" fill="#293688"/><path d="M439.2 180.4c-9.6 0-16.8.8-20.8 10.4l-60 133.6h43.2l8-24h51.2l4.8 24H504l-33.6-144h-31.2zm-18.4 96c2.4-7.2 16-42.4 16-42.4s3.2-8.8 5.6-14.4l2.4 13.6s8 36 9.6 44h-33.6v-.8z" fill="#3c58bf"/><path d="M448.8 180.4c-9.6 0-16.8.8-20.8 10.4l-69.6 133.6h43.2l8-24h51.2l4.8 24H504l-33.6-144h-21.6zm-28 96c3.2-8 16-42.4 16-42.4s3.2-8.8 5.6-14.4l2.4 13.6s8 36 9.6 44h-33.6v-.8z" fill="#293688"/><path d="M111.2 281.2l-4-20.8c-7.2-24-30.4-50.4-56-63.2l36 128h43.2l64.8-144H152l-40.8 100z" fill="#3c58bf"/><path d="M111.2 281.2l-4-20.8c-7.2-24-30.4-50.4-56-63.2l36 128h43.2l64.8-144H160l-48.8 100z" fill="#293688"/><path d="M0 180.4l7.2 1.6c51.2 12 86.4 42.4 100 78.4l-14.4-68c-2.4-9.6-9.6-12-18.4-12H0z" fill="#ffbc00"/><path d="M0 180.4c51.2 12 93.6 43.2 107.2 79.2l-13.6-56.8c-2.4-9.6-10.4-15.2-19.2-15.2L0 180.4z" fill="#f7981d"/><path d="M0 180.4c51.2 12 93.6 43.2 107.2 79.2l-9.6-31.2c-2.4-9.6-5.6-19.2-16.8-23.2L0 180.4z" fill="#ed7c00"/><path d="M151.2 276.4L124 249.2l-12.8 30.4-3.2-20c-7.2-24-30.4-50.4-56-63.2l36 128h43.2l20-48zm74.4 48l-34.4-35.2-6.4 35.2zm92-49.6c3.2 3.2 4.8 5.6 4 8.8 0 9.6-12.8 14.4-24 14.4-16 0-24.8-2.4-38.4-8l-5.6-2.4-5.6 32.8c9.6 4 27.2 8 45.6 8 25.6 0 46.4-7.2 58.4-20l-34.4-33.6zm46.4 49.6h37.6l8-24h51.2l4.8 24H504L490.4 266l-48-46.4 2.4 12.8s8 36 9.6 44h-33.6c3.2-8 16-42.4 16-42.4s3.2-8.8 5.6-14.4" fill="#051244"/></svg><svg viewBox="0 0 44 44" id="yandex-icon" xmlns="http://www.w3.org/2000/svg"><g fill-rule="evenodd" clip-rule="evenodd" stroke="#000" stroke-width=".75" stroke-miterlimit="10" transform="translate(8 5)"><circle cx="13.3" cy="22.1" fill="#ffdd53" r="13.6"/><path d="M20.1 8.2v12.7h0c0 1.2-.1 2.4-.3 3-.8 2.8-3.4 4.9-6.5 4.9-3.8 0-6.8-3-6.8-6.8s3-6.8 6.8-6.8c1.8 0 3.4.7 4.6 1.8.4.4.7.8 1 1.2-.1-.4-.2-.9-.2-1.3V1.7l8.8 2.7v6.1l-7.4-2.3z" fill="#ff6355"/></g></svg><svg viewBox="0 0 100 100" id="youtube-icon" xmlns="http://www.w3.org/2000/svg"><circle cx="50" cy="50" r="34" fill="#f15b6c"/><path fill="#1f212b" d="M50 85c-19.299 0-35-15.701-35-35s15.701-35 35-35 35 15.701 35 35-15.701 35-35 35zm0-68c-18.196 0-33 14.804-33 33s14.804 33 33 33 33-14.804 33-33-14.804-33-33-33z"/><path fill="#1f212b" d="M65.5 24.227a.495.495 0 01-.254-.069 30.722 30.722 0 00-1.968-1.066.5.5 0 01.443-.897c.686.339 1.369.71 2.032 1.102a.5.5 0 01-.253.93zm3 2.022a.502.502 0 01-.304-.103 27.455 27.455 0 00-.983-.719.5.5 0 01.574-.82c.344.241.683.489 1.017.745a.5.5 0 01-.304.897z"/><path fill="#1f212b" d="M50 81c-17.094 0-31-13.906-31-31 0-17.093 13.906-31 31-31 3.666 0 7.257.635 10.672 1.887a.5.5 0 11-.344.938A29.921 29.921 0 0050 20c-16.542 0-30 13.458-30 30s13.458 30 30 30 30-13.458 30-30a30.069 30.069 0 00-9.836-22.213.499.499 0 11.672-.74A31.068 31.068 0 0181 50c0 17.094-13.906 31-31 31z"/><path fill="#fff" d="M43.5 61a.501.501 0 01-.5-.5v-21a.502.502 0 01.743-.438l18 10a.503.503 0 01.018.865l-18 11A.498.498 0 0143.5 61z"/><path fill="#1f212b" d="M52 55.806a.501.501 0 01-.261-.927l2-1.223a.502.502 0 01.522.854l-2 1.223a.503.503 0 01-.261.073z"/><path fill="#1f212b" d="M43.5 61a.501.501 0 01-.5-.5v-21a.502.502 0 01.743-.438l18 10a.503.503 0 01.018.865l-4.5 2.75a.502.502 0 01-.522-.854l3.769-2.303L44 40.35v19.259l4.739-2.896a.5.5 0 01.522.854l-5.5 3.361A.506.506 0 0143.5 61z"/><path fill="#fff" d="M50 28.5c-11.856 0-21.5 9.644-21.5 21.5S38.144 71.5 50 71.5 71.5 61.856 71.5 50 61.856 28.5 50 28.5zm0 40c-10.201 0-18.5-8.299-18.5-18.5S39.799 31.5 50 31.5 68.5 39.799 68.5 50 60.201 68.5 50 68.5z"/><path fill="#1f212b" d="M50 69c-10.477 0-19-8.523-19-19s8.523-19 19-19 19 8.523 19 19-8.523 19-19 19zm0-37c-9.925 0-18 8.075-18 18s8.075 18 18 18 18-8.075 18-18-8.075-18-18-18z"/><path fill="#1f212b" d="M50 72c-12.131 0-22-9.869-22-22s9.869-22 22-22 22 9.869 22 22-9.869 22-22 22zm0-43c-11.579 0-21 9.421-21 21s9.421 21 21 21 21-9.421 21-21-9.421-21-21-21z"/></svg></svg>